<?xml version="1.0" encoding="UTF-8" standalone="no"?>
<svg
   xmlns:dc="http://purl.org/dc/elements/1.1/"
   xmlns:cc="http://creativecommons.org/ns#"
   xmlns:rdf="http://www.w3.org/1999/02/22-rdf-syntax-ns#"
   xmlns:svg="http://www.w3.org/2000/svg"
   xmlns="http://www.w3.org/2000/svg"
   xmlns:sodipodi="http://sodipodi.sourceforge.net/DTD/sodipodi-0.dtd"
   xmlns:inkscape="http://www.inkscape.org/namespaces/inkscape"
   width="50.614586mm"
   height="16.423578mm"
   viewBox="0 0 50.614586 16.423578"
   version="1.1"
   id="svg8"
   sodipodi:docname="logo4.svg"
   inkscape:version="1.0 (4035a4fb49, 2020-05-01)">
  <defs
     id="defs2" />
  <sodipodi:namedview
     id="base"
     pagecolor="#ffffff"
     bordercolor="#666666"
     borderopacity="1.0"
     inkscape:pageopacity="0.0"
     inkscape:pageshadow="2"
     inkscape:zoom="0.98994949"
     inkscape:cx="113.66525"
     inkscape:cy="-69.607542"
     inkscape:document-units="mm"
     inkscape:current-layer="layer1"
     inkscape:document-rotation="0"
     showgrid="false"
     inkscape:window-width="1920"
     inkscape:window-height="1027"
     inkscape:window-x="-8"
     inkscape:window-y="-8"
     inkscape:window-maximized="1"
     fit-margin-top="0"
     fit-margin-left="0"
     fit-margin-right="0"
     fit-margin-bottom="0" />
  <metadata
     id="metadata5">
    <rdf:RDF>
      <cc:Work
         rdf:about="">
        <dc:format>image/svg+xml</dc:format>
        <dc:type
           rdf:resource="http://purl.org/dc/dcmitype/StillImage" />
        <dc:title></dc:title>
      </cc:Work>
    </rdf:RDF>
  </metadata>
  <g
     inkscape:label="Слой 1"
     inkscape:groupmode="layer"
     id="layer1"
     transform="translate(-18.131149,-68.526789)">
    <text
       xml:space="preserve"
       style="font-size:1.24908px;line-height:1.25;font-family:'Roboto Condensed';-inkscape-font-specification:'Roboto Condensed, ';stroke-width:0.264583"
       x="82.719917"
       y="82.185379"
       id="text839"><tspan
         sodipodi:role="line"
         id="tspan837"
         x="82.719917"
         y="82.185379"
         style="stroke-width:0.264583" /></text>
    <g
       transform="matrix(0.56144157,0,0,0.56144157,7.9515682,37.2557)"
       id="g899">
      <g
         id="g886">
        <g
           id="g875">
          <g
             aria-label="TATTOO"
             id="text835"
             style="font-style:normal;font-variant:normal;font-weight:bold;font-stretch:normal;font-size:19.05px;line-height:1.25;font-family:'Roboto Condensed';-inkscape-font-specification:'Roboto Condensed, Bold';fill:#d3a06d;fill-opacity:1;stroke-width:0.264583">
            <path
               d="M 27.516622,63.509757 H 24.167989 V 74.774185 H 21.423971 V 63.509757 h -3.292822 v -2.278931 h 9.385473 z"
               style="font-style:normal;font-variant:normal;font-weight:bold;font-stretch:normal;font-size:19.05px;font-family:'Roboto Condensed';-inkscape-font-specification:'Roboto Condensed, Bold';fill:#d3a06d;fill-opacity:1;stroke-width:0.264583"
               id="path901" />
            <path
               d="m 34.43713,72.002261 h -3.730005 l -0.725537,2.771924 h -2.892847 l 4.2323,-13.543359 h 2.502173 l 4.260205,13.543359 h -2.920752 z m -3.134692,-2.27893 h 2.530078 l -1.265039,-4.827612 z"
               style="font-style:normal;font-variant:normal;font-weight:bold;font-stretch:normal;font-size:19.05px;font-family:'Roboto Condensed';-inkscape-font-specification:'Roboto Condensed, Bold';fill:#d3a06d;fill-opacity:1;stroke-width:0.264583"
               id="path903" />
            <path
               d="M 47.013105,63.509757 H 43.664472 V 74.774185 H 40.920454 V 63.509757 h -3.292822 v -2.278931 h 9.385473 z"
               style="font-style:normal;font-variant:normal;font-weight:bold;font-stretch:normal;font-size:19.05px;font-family:'Roboto Condensed';-inkscape-font-specification:'Roboto Condensed, Bold';fill:#d3a06d;fill-opacity:1;stroke-width:0.264583"
               id="path905" />
            <path
               d="M 57.505487,63.509757 H 54.156854 V 74.774185 H 51.412836 V 63.509757 h -3.292822 v -2.278931 h 9.385473 z"
               style="font-style:normal;font-variant:normal;font-weight:bold;font-stretch:normal;font-size:19.05px;font-family:'Roboto Condensed';-inkscape-font-specification:'Roboto Condensed, Bold';fill:#d3a06d;fill-opacity:1;stroke-width:0.264583"
               id="path907" />
            <path
               d="m 68.351338,69.221036 q 0,2.725415 -1.292944,4.2323 -1.283643,1.506884 -3.571875,1.506884 -2.278931,0 -3.581177,-1.488281 -1.302246,-1.497583 -1.320849,-4.185791 v -2.316137 q 0,-2.790528 1.292944,-4.353223 1.292944,-1.571997 3.590478,-1.571997 2.260328,0 3.562574,1.544092 1.302246,1.53479 1.320849,4.316015 z M 65.60732,66.951407 q 0,-1.832446 -0.520899,-2.725415 -0.520898,-0.892968 -1.618506,-0.892968 -1.088305,0 -1.609204,0.865063 -0.520898,0.855762 -0.539501,2.613794 v 2.409155 q 0,1.776636 0.5302,2.623096 0.5302,0.837158 1.637109,0.837158 1.069702,0 1.590601,-0.818555 0.520898,-0.827856 0.5302,-2.557983 z"
               style="font-style:normal;font-variant:normal;font-weight:bold;font-stretch:normal;font-size:19.05px;font-family:'Roboto Condensed';-inkscape-font-specification:'Roboto Condensed, Bold';fill:#d3a06d;fill-opacity:1;stroke-width:0.264583"
               id="path909" />
            <path
               d="m 79.848309,69.221036 q 0,2.725415 -1.292944,4.2323 -1.283643,1.506884 -3.571875,1.506884 -2.27893,0 -3.581176,-1.488281 -1.302247,-1.497583 -1.32085,-4.185791 v -2.316137 q 0,-2.790528 1.292944,-4.353223 1.292945,-1.571997 3.590479,-1.571997 2.260327,0 3.562573,1.544092 1.302246,1.53479 1.320849,4.316015 z m -2.744018,-2.269629 q 0,-1.832446 -0.520899,-2.725415 -0.520898,-0.892968 -1.618505,-0.892968 -1.088306,0 -1.609204,0.865063 -0.520899,0.855762 -0.539502,2.613794 v 2.409155 q 0,1.776636 0.5302,2.623096 0.5302,0.837158 1.637109,0.837158 1.069702,0 1.590601,-0.818555 0.520898,-0.827856 0.5302,-2.557983 z"
               style="font-style:normal;font-variant:normal;font-weight:bold;font-stretch:normal;font-size:19.05px;font-family:'Roboto Condensed';-inkscape-font-specification:'Roboto Condensed, Bold';fill:#d3a06d;fill-opacity:1;stroke-width:0.264583"
               id="path911" />
          </g>
          <g
             aria-label="64"
             id="text843"
             style="font-size:26.4583px;line-height:1.25;font-family:'Roboto Condensed';-inkscape-font-specification:'Roboto Condensed, ';fill:#ffffff;fill-opacity:1;stroke-width:0.264583">
            <path
               d="m 92.378868,55.697852 v 3.100582 h -0.206705 q -2.054136,0.01292 -3.26853,1.240233 -1.201476,1.214394 -1.459858,3.41064 1.175637,-1.343586 2.945553,-1.343586 2.041217,0 3.255611,1.744078 1.227314,1.744077 1.227314,4.650873 0,1.84743 -0.697631,3.333125 -0.697631,1.485696 -1.963702,2.312518 -1.253152,0.813902 -2.8422,0.813902 -2.55798,0 -4.108271,-2.054135 -1.537372,-2.054136 -1.537372,-5.529371 v -1.356505 q 0,-3.113501 0.968932,-5.451857 0.981851,-2.338355 2.816362,-3.591507 1.84743,-1.266071 4.302057,-1.27899 z m -3.139339,9.430937 q -0.697631,0 -1.175637,0.439249 -0.465088,0.439249 -0.697631,1.085204 v 1.317747 q 0,1.98954 0.529682,2.971391 0.529683,0.981851 1.395262,0.981851 0.878498,0 1.408181,-0.943094 0.529683,-0.956013 0.529683,-2.441708 0,-1.511534 -0.555521,-2.454627 -0.542602,-0.956013 -1.434019,-0.956013 z"
               style="font-style:normal;font-variant:normal;font-weight:bold;font-stretch:normal;font-size:26.4583px;font-family:'Roboto Condensed';-inkscape-font-specification:'Roboto Condensed,  Bold';fill:#ffffff;fill-opacity:1;stroke-width:0.264583"
               id="path914" />
            <path
               d="m 106.6803,67.596335 h 1.60197 v 3.035987 h -1.60197 v 4.069514 h -3.6561 v -4.069514 h -6.227002 l -0.167949,-2.364194 6.382031,-12.37649 h 3.66902 z m -6.4983,0 h 2.8422 v -6.291597 l -0.0775,0.14211 z"
               style="font-style:normal;font-variant:normal;font-weight:bold;font-stretch:normal;font-size:26.4583px;font-family:'Roboto Condensed';-inkscape-font-specification:'Roboto Condensed,  Bold';fill:#ffffff;fill-opacity:1;stroke-width:0.264583"
               id="path916" />
          </g>
        </g>
      </g>
      <g
         transform="translate(9.2422969)"
         id="g869">
        <g
           aria-label="ТАТУ"
           id="text847"
           style="font-style:normal;font-variant:normal;font-weight:bold;font-stretch:normal;font-size:9.525px;line-height:1.25;font-family:'Roboto Condensed';-inkscape-font-specification:'Roboto Condensed, Bold';fill:#ffffff;fill-opacity:1;stroke-width:0.264583">
          <path
             d="m 60.094628,79.202399 h -1.302245 v 4.380609 h -1.067118 v -4.380609 h -1.280542 v -0.886251 h 3.649905 z"
             style="font-style:normal;font-variant:normal;font-weight:bold;font-stretch:normal;font-size:7.40833px;font-family:'Roboto Condensed';-inkscape-font-specification:'Roboto Condensed, Bold';fill:#ffffff;fill-opacity:1;stroke-width:0.264583"
             id="path919" />
          <path
             d="m 62.785936,82.505038 h -1.450557 l -0.282153,1.07797 H 59.92823 l 1.645894,-5.26686 h 0.973067 l 1.656745,5.26686 h -1.135847 z m -1.219047,-0.88625 h 0.983919 l -0.491959,-1.877404 z"
             style="font-style:normal;font-variant:normal;font-weight:bold;font-stretch:normal;font-size:7.40833px;font-family:'Roboto Condensed';-inkscape-font-specification:'Roboto Condensed, Bold';fill:#ffffff;fill-opacity:1;stroke-width:0.264583"
             id="path921" />
          <path
             d="m 67.676591,79.202399 h -1.302246 v 4.380609 h -1.067118 v -4.380609 h -1.280541 v -0.886251 h 3.649905 z"
             style="font-style:normal;font-variant:normal;font-weight:bold;font-stretch:normal;font-size:7.40833px;font-family:'Roboto Condensed';-inkscape-font-specification:'Roboto Condensed, Bold';fill:#ffffff;fill-opacity:1;stroke-width:0.264583"
             id="path923" />
          <path
             d="m 69.951903,80.656573 0.709,-2.340425 h 1.143082 l -1.443322,4.232298 q -0.245979,0.629419 -0.53175,0.864546 -0.282153,0.235128 -0.680062,0.24598 h -0.115755 l -0.253214,-0.01447 -0.01809,-0.882633 q 0.03617,0.01447 0.235128,0.01447 0.202571,0 0.303857,-0.09043 0.104903,-0.09043 0.180868,-0.405143 l 0.05064,-0.191719 -1.504817,-3.772895 h 1.139465 z"
             style="font-style:normal;font-variant:normal;font-weight:bold;font-stretch:normal;font-size:7.40833px;font-family:'Roboto Condensed';-inkscape-font-specification:'Roboto Condensed, Bold';fill:#ffffff;fill-opacity:1;stroke-width:0.264583"
             id="path925" />
        </g>
        <g
           aria-label="СТУДИЯ"
           id="text853"
           style="font-style:normal;font-variant:normal;font-weight:bold;font-stretch:normal;font-size:7.40833px;line-height:1;font-family:'Roboto Condensed';-inkscape-font-specification:'Roboto Condensed, Bold';fill:#d3a06d;fill-opacity:1;stroke-width:0.264583">
          <path
             d="m 78.294479,81.900943 q -0.03979,0.90072 -0.506429,1.363741 -0.466638,0.46302 -1.316715,0.46302 -0.893485,0 -1.370975,-0.58601 -0.473872,-0.589628 -0.473872,-1.67845 v -0.88625 q 0,-1.085205 0.491959,-1.671215 0.491959,-0.589628 1.367358,-0.589628 0.860929,0 1.305863,0.481107 0.448551,0.481108 0.510046,1.381827 h -1.067118 q -0.01447,-0.557071 -0.173633,-0.766878 -0.155546,-0.213423 -0.575158,-0.213423 -0.426847,0 -0.604097,0.30024 -0.177251,0.296622 -0.188103,0.980301 v 0.994771 q 0,0.784965 0.173633,1.07797 0.17725,0.293005 0.604097,0.293005 0.419613,0 0.578776,-0.202571 0.159163,-0.206189 0.180868,-0.741557 z"
             style="font-style:normal;font-variant:normal;font-weight:bold;font-stretch:normal;font-size:7.40833px;font-family:'Roboto Condensed';-inkscape-font-specification:'Roboto Condensed, Bold';fill:#d3a06d;fill-opacity:1;stroke-width:0.264583"
             id="path928" />
          <path
             d="m 82.259093,79.274748 h -1.302245 v 4.380609 H 79.88973 v -4.380609 h -1.280542 v -0.88625 h 3.649905 z"
             style="font-style:normal;font-variant:normal;font-weight:bold;font-stretch:normal;font-size:7.40833px;font-family:'Roboto Condensed';-inkscape-font-specification:'Roboto Condensed, Bold';fill:#d3a06d;fill-opacity:1;stroke-width:0.264583"
             id="path930" />
          <path
             d="m 84.534405,80.728922 0.709001,-2.340424 h 1.143082 l -1.443322,4.232298 q -0.24598,0.629418 -0.531751,0.864546 -0.282153,0.235128 -0.680061,0.24598 h -0.115755 l -0.253215,-0.01447 -0.01809,-0.882633 q 0.03617,0.01447 0.235127,0.01447 0.202572,0 0.303857,-0.09043 0.104904,-0.09043 0.180868,-0.405143 l 0.05064,-0.19172 -1.504817,-3.772894 h 1.139465 z"
             style="font-style:normal;font-variant:normal;font-weight:bold;font-stretch:normal;font-size:7.40833px;font-family:'Roboto Condensed';-inkscape-font-specification:'Roboto Condensed, Bold';fill:#d3a06d;fill-opacity:1;stroke-width:0.264583"
             id="path932" />
          <path
             d="M 90.879235,84.950368 H 89.90255 v -1.295011 h -2.492353 v 1.291394 h -1.005623 l -0.05788,-2.174027 h 0.350883 q 0.23151,-0.213423 0.365352,-0.687296 0.133842,-0.473873 0.188102,-1.240751 l 0.148311,-2.456179 h 3.027721 v 4.384226 h 0.54622 z m -3.038573,-2.177644 h 1.526521 v -3.497976 h -0.95498 l -0.08682,1.450557 q -0.09043,1.305863 -0.484724,2.047419 z"
             style="font-style:normal;font-variant:normal;font-weight:bold;font-stretch:normal;font-size:7.40833px;font-family:'Roboto Condensed';-inkscape-font-specification:'Roboto Condensed, Bold';fill:#d3a06d;fill-opacity:1;stroke-width:0.264583"
             id="path934" />
          <path
             d="m 94.102293,78.388498 h 1.0635 v 5.266859 h -1.0635 v -3.487124 l -1.551843,3.487124 h -1.067117 v -5.266859 h 1.067117 v 3.490741 z"
             style="font-style:normal;font-variant:normal;font-weight:bold;font-stretch:normal;font-size:7.40833px;font-family:'Roboto Condensed';-inkscape-font-specification:'Roboto Condensed, Bold';fill:#d3a06d;fill-opacity:1;stroke-width:0.264583"
             id="path936" />
          <path
             d="m 97.972855,83.655357 v -1.89549 h -0.557071 l -0.77773,1.89549 h -1.1467 l 0.933276,-2.278929 q -0.651123,-0.452169 -0.651123,-1.360123 0,-0.781348 0.4377,-1.204577 0.441316,-0.42323 1.247985,-0.42323 h 1.580781 v 5.266859 z m -1.13223,-3.555853 q 0,0.437699 0.155546,0.636653 0.155546,0.195337 0.484725,0.195337 h 0.491959 v -1.656746 h -0.528132 q -0.604098,0 -0.604098,0.824756 z"
             style="font-style:normal;font-variant:normal;font-weight:bold;font-stretch:normal;font-size:7.40833px;font-family:'Roboto Condensed';-inkscape-font-specification:'Roboto Condensed, Bold';fill:#d3a06d;fill-opacity:1;stroke-width:0.264583"
             id="path938" />
        </g>
      </g>
    </g>
  </g>
</svg>
